<svg version="1.1" id="Layer_1" xmlns="http://www.w3.org/2000/svg" xmlns:xlink="http://www.w3.org/1999/xlink" x="0px" y="0px"
	 width="100%" viewBox="0 0 1024 672" enable-background="new 0 0 1024 672" xml:space="preserve">
<path fill="#000000" opacity="1.000000" stroke="none" 
	d="
M420.397003,316.615540 
	C423.624603,275.754120 460.072418,240.712143 500.841400,237.440186 
	C529.478760,235.141846 553.875549,243.578262 574.047119,263.400818 
	C592.420593,281.456512 600.672119,304.199677 600.120239,329.829437 
	C599.849487,342.402832 596.345703,354.440704 590.631653,365.744141 
	C589.790222,367.408600 587.756104,369.194977 589.959900,371.044586 
	C592.595337,373.256439 593.960205,377.800903 598.562988,376.704102 
	C606.321838,374.855194 612.065918,378.067200 617.333740,383.282959 
	C636.507446,402.267120 655.729980,421.202209 674.993591,440.095123 
	C683.016418,447.963562 685.190796,459.910370 680.023621,469.924896 
	C670.919861,487.568909 646.633240,495.920410 629.861938,478.623901 
	C611.779358,459.975159 592.872864,442.125580 574.341614,423.911285 
	C570.760559,420.391479 568.383179,416.196167 568.696899,411.057831 
	C569.048706,405.295197 564.328674,403.255951 561.144348,400.099304 
	C560.112244,399.076233 559.038879,400.181488 558.027832,400.755524 
	C522.781372,420.767273 487.986115,419.731445 455.419678,395.802429 
	C429.341492,376.640778 417.357452,349.849243 420.397003,316.615540 
M459.475220,267.979645 
	C458.752808,268.670349 458.043304,269.375153 457.306152,270.049744 
	C432.441498,292.803223 425.548004,328.102631 440.113434,358.105713 
	C455.322449,389.434509 488.335693,406.532593 523.311707,400.576447 
	C564.994446,393.478210 593.051941,355.484833 586.344727,314.634064 
	C581.441772,284.772247 564.107727,263.913116 535.488831,253.780197 
	C508.046539,244.063873 482.729218,249.536148 459.475220,267.979645 
M587.690430,401.200104 
	C578.692749,410.680756 578.691528,411.214325 587.942200,420.415680 
	C603.167053,435.559387 618.386658,450.708405 633.649170,465.814087 
	C636.718201,468.851562 639.680786,472.038605 643.521851,474.188812 
	C651.186218,478.479340 660.624207,475.855011 666.798157,467.687836 
	C672.202515,460.538757 671.608765,453.151947 665.082275,446.707825 
	C654.536987,436.295654 643.984558,425.890656 633.423767,415.494202 
	C625.236755,407.434540 617.065125,399.358826 608.822327,391.356415 
	C604.450928,387.112457 601.689697,387.213593 597.375610,391.512970 
	C594.309204,394.568970 591.250305,397.632507 587.690430,401.200104 
M585.710510,383.767792 
	C584.398743,382.606049 583.541687,380.800781 581.072571,380.686920 
	C577.716492,384.417908 574.228577,388.295471 570.817627,392.087463 
	C573.240234,396.699738 576.018616,397.505463 579.241699,393.582367 
	C581.682068,390.612030 586.545227,389.401825 585.710510,383.767792 
z"/>
<path fill="#000000" opacity="1.000000" stroke="none" 
	d="
M292.089722,333.000000 
	C292.087463,361.493530 292.080444,389.487061 292.090057,417.480591 
	C292.093689,428.007843 295.701813,431.685089 306.088654,431.687347 
	C361.909515,431.699341 417.730408,431.654205 473.551147,431.740601 
	C481.095581,431.752289 486.785431,429.999390 489.171295,421.723389 
	C490.465668,417.233459 494.272095,420.992249 496.899353,420.742462 
	C499.434235,420.501495 500.428986,422.048889 500.317841,424.495117 
	C499.988220,431.748413 495.687195,436.432770 490.024139,440.079834 
	C486.475586,442.365143 482.491882,443.407837 478.172913,443.404388 
	C419.519379,443.357544 360.865784,443.392670 302.212250,443.346558 
	C289.835968,443.336823 279.782867,433.583374 279.767426,421.215088 
	C279.678802,350.231110 279.702545,279.246948 279.766266,208.262909 
	C279.772369,201.444687 282.726349,195.759628 287.598724,190.995819 
	C296.888153,181.913467 306.170197,172.821808 315.328796,163.608231 
	C319.334198,159.578735 324.004272,157.653061 329.634125,157.657349 
	C370.624969,157.688568 411.615814,157.694611 452.606659,157.684265 
	C458.598938,157.682755 463.564453,159.847397 467.781769,164.108109 
	C476.689392,173.107391 485.532440,182.182526 494.740051,190.868210 
	C499.596466,195.449371 501.758331,200.923431 502.078278,207.238647 
	C502.381470,213.222748 502.258514,219.233521 502.173523,225.230453 
	C502.114624,229.384979 499.015350,231.186356 492.558319,230.931595 
	C488.748749,230.781281 490.104736,227.741333 489.814240,225.699646 
	C489.651611,224.556656 489.675507,223.357788 489.810669,222.207047 
	C490.286865,218.152161 488.336945,217.010681 484.550354,217.139694 
	C478.059174,217.360886 471.555328,217.231689 465.056885,217.213242 
	C452.898163,217.178726 445.725586,210.091507 445.679352,198.055908 
	C445.649292,190.224426 445.528687,182.389191 445.727722,174.562729 
	C445.822388,170.840256 444.908661,169.210754 440.740631,169.227158 
	C404.582581,169.369583 368.423676,169.345169 332.265289,169.261047 
	C328.611298,169.252563 327.215668,170.500504 327.288055,174.204742 
	C327.457245,182.865952 327.439697,191.535095 327.283875,200.197189 
	C327.114624,209.608170 319.442627,217.248856 310.438293,217.292847 
	C306.508698,217.312057 304.182129,215.736969 303.799042,211.538681 
	C303.410492,207.280396 305.477081,205.895279 309.357269,205.881042 
	C313.450165,205.866028 315.508606,203.273239 315.672852,199.542480 
	C315.935181,193.584473 315.743011,187.606476 315.743011,181.018326 
	C311.359711,183.554962 308.649689,187.126419 305.621246,190.248291 
	C289.528656,206.837311 292.198334,199.124481 292.136047,222.026688 
	C292.035919,258.850891 292.098022,295.675537 292.089722,333.000000 
M457.383636,200.590332 
	C458.663788,204.518356 461.566345,205.898544 465.469269,205.869385 
	C470.967133,205.828293 476.466949,205.953384 481.963348,205.857971 
	C484.347961,205.816589 486.901642,206.437286 490.710602,203.878143 
	C479.480591,193.056702 469.008301,182.320511 457.228485,170.733505 
	C457.228485,181.550018 457.228485,190.649048 457.383636,200.590332 
z"/>
<path fill="#000000" opacity="1.000000" stroke="none" 
	d="
M557.118164,169.303802 
	C543.701904,169.289734 540.314697,172.640427 540.307983,185.491241 
	C540.300842,199.157547 540.323181,212.823898 540.292603,226.490143 
	C540.288208,228.459686 540.632812,230.490250 539.734375,232.360565 
	C531.358154,233.826874 528.171021,231.135880 528.062561,222.992569 
	C527.871582,208.663284 528.919006,194.355713 528.456299,180.013855 
	C528.076355,168.239334 538.402466,157.763794 550.266174,157.736542 
	C596.931396,157.629364 643.596924,157.689850 690.262390,157.693314 
	C695.537292,157.693710 700.014832,159.704483 703.725159,163.357513 
	C713.579895,173.060135 723.441101,182.757645 733.177917,192.577957 
	C738.066711,197.508774 739.285950,203.862259 739.286072,210.534103 
	C739.286865,275.199066 739.280273,339.864014 739.274109,404.528961 
	C739.273560,409.862122 739.359802,415.197632 739.234192,420.528015 
	C738.933594,433.284912 728.914856,443.177734 716.156311,443.343475 
	C709.824219,443.425751 703.387878,442.649628 697.180969,443.536835 
	C687.839783,444.872040 683.431885,439.078735 678.714478,432.985718 
	C680.276123,430.963379 682.256775,431.753632 683.945374,431.740051 
	C694.111145,431.658478 704.278687,431.769379 714.444031,431.666016 
	C722.476318,431.584351 726.832275,427.304108 726.838257,419.257202 
	C726.887207,353.592438 726.839233,287.927551 726.928772,222.262833 
	C726.934204,218.285309 725.511658,216.987839 721.663269,217.117065 
	C715.004089,217.340683 708.330444,217.307846 701.666687,217.181747 
	C689.949890,216.960022 682.797058,209.614456 682.744141,197.900955 
	C682.709473,190.234634 682.507568,182.559769 682.800232,174.904785 
	C682.968384,170.507553 681.485474,169.204742 677.094849,169.220978 
	C637.263428,169.368408 597.431152,169.305313 557.118164,169.303802 
M711.557373,187.942383 
	C706.160095,182.604523 700.762878,177.266663 694.413452,170.987122 
	C694.413452,181.598953 694.119507,190.840057 694.560974,200.045883 
	C694.732910,203.631241 697.616394,205.828857 701.556519,205.842407 
	C705.554504,205.856155 709.559326,206.039444 713.548706,205.864914 
	C717.753845,205.680923 722.092224,206.716888 726.415588,204.926361 
	C726.115417,203.876648 726.128357,202.876968 725.635254,202.360352 
	C721.160522,197.672287 716.597351,193.068604 711.557373,187.942383 
z"/>
<path fill="#000000" opacity="1.000000" stroke="none" 
	d="
M340.974670,234.891693 
	C360.359375,234.878159 362.188934,236.720459 362.134979,255.758713 
	C362.122253,260.246857 362.223663,264.743011 361.993530,269.221130 
	C361.617493,276.537170 357.670105,280.619080 350.323700,280.837555 
	C341.188538,281.109222 332.035522,281.122925 322.898987,280.895355 
	C315.926056,280.721619 311.811584,276.361023 311.702423,269.442688 
	C311.579193,261.631561 311.595001,253.815994 311.693695,246.004166 
	C311.779663,239.199600 315.648315,235.174347 322.528137,234.928894 
	C328.504883,234.715668 334.495422,234.889297 340.974670,234.891693 
M342.921326,259.423157 
	C344.794281,257.535156 346.632660,255.611145 348.550323,253.769699 
	C350.318512,252.071838 351.306244,250.248932 349.220337,248.237442 
	C347.081360,246.174805 345.300842,247.532700 343.664215,249.172195 
	C341.550385,251.289719 339.245239,253.248901 337.355804,255.550003 
	C334.588928,258.919678 332.126587,259.734039 329.113678,255.836487 
	C327.987885,254.380142 326.383057,252.293991 324.254089,254.613464 
	C322.441864,256.587830 323.171783,258.566040 324.896210,260.326019 
	C335.094482,270.734589 332.730042,269.440826 341.338043,260.954865 
	C341.693146,260.604797 342.045441,260.251892 342.921326,259.423157 
z"/>
<path fill="#000000" opacity="1.000000" stroke="none" 
	d="
M687.921082,280.943329 
	C680.946960,280.942749 674.458191,281.057343 667.975708,280.902985 
	C660.235596,280.718750 655.960938,276.376343 655.867188,268.693420 
	C655.779907,261.543427 655.791870,254.390137 655.899658,247.240417 
	C656.024231,238.974228 660.012268,234.966187 668.204285,234.891205 
	C677.017822,234.810516 685.833984,234.796814 694.646729,234.917313 
	C702.402771,235.023376 706.243469,238.967148 706.313232,246.704895 
	C706.376221,253.689316 706.354797,260.674713 706.334290,267.659607 
	C706.307495,276.783417 702.918335,280.370636 693.895996,280.837738 
	C692.070190,280.932281 690.238281,280.908600 687.921082,280.943329 
M673.990295,255.488205 
	C675.945862,257.106995 675.994690,258.750702 674.160828,260.536560 
	C673.089966,261.579346 672.088440,262.706085 671.156494,263.875427 
	C669.942261,265.398987 669.972534,266.970886 671.438354,268.319611 
	C672.815735,269.586945 674.158081,269.213074 675.395691,268.003693 
	C676.229309,267.189117 677.165100,266.463654 677.909668,265.576202 
	C680.101074,262.964386 682.207947,262.763062 684.426025,265.541504 
	C685.043213,266.314636 685.830139,266.962341 686.587036,267.611786 
	C688.161194,268.962433 689.822571,269.365082 691.470154,267.760437 
	C693.258667,266.018463 692.546204,264.296631 690.970520,263.060364 
	C686.665649,259.682739 685.808716,256.548370 690.916687,253.086838 
	C692.847107,251.778671 693.119568,249.852310 691.366211,247.957169 
	C689.439453,245.874542 687.666382,246.725311 686.351318,248.491669 
	C682.948120,253.062714 679.669373,253.296890 676.203125,248.632828 
	C675.816406,248.112442 675.226257,247.731720 674.695923,247.331955 
	C673.388916,246.346756 672.194153,246.666687 671.143372,247.754562 
	C670.029846,248.907471 669.250305,250.211182 670.454773,251.719910 
	C671.385620,252.885956 672.480835,253.920853 673.990295,255.488205 
z"/>
<path fill="#000000" opacity="1.000000" stroke="none" 
	d="
M318.419434,389.354736 
	C314.102997,389.106567 312.048767,386.908447 312.358887,383.190979 
	C312.684998,379.281097 315.738159,378.068817 319.174835,378.041107 
	C330.655060,377.948608 342.136230,377.959900 353.617035,377.959930 
	C367.760254,377.959961 381.903534,377.975128 396.046661,378.021393 
	C397.867188,378.027344 399.736298,378.038666 401.496063,378.433990 
	C404.491516,379.106903 406.039642,381.341248 405.928650,384.271729 
	C405.812134,387.348389 403.770538,389.008179 400.734741,389.305115 
	C399.414307,389.434235 398.075134,389.393341 396.744476,389.393036 
	C370.787476,389.387115 344.830444,389.375763 318.419434,389.354736 
z"/>
<path fill="#000000" opacity="1.000000" stroke="none" 
	d="
M393.834778,324.110077 
	C395.970825,324.155975 397.639984,324.111755 399.291443,324.262115 
	C403.029541,324.602448 405.169037,326.825195 405.103119,330.462128 
	C405.034821,334.230103 402.318329,335.375549 398.909454,335.370911 
	C388.268585,335.356384 377.627655,335.382233 366.986755,335.381165 
	C351.191650,335.379547 335.396545,335.355225 319.601440,335.373566 
	C316.829651,335.376770 314.248657,335.151306 312.843872,332.248352 
	C311.311523,329.081848 312.644867,325.618622 316.115723,324.756287 
	C318.497253,324.164581 321.051392,324.092438 323.528778,324.089142 
	C346.805756,324.058472 370.082825,324.092773 393.834778,324.110077 
z"/>
<path fill="#000000" opacity="1.000000" stroke="none" 
	d="
M615.964355,327.035950 
	C617.996033,324.276123 620.648193,324.083527 623.359497,324.084869 
	C648.159119,324.097137 672.958740,324.105499 697.758301,324.153809 
	C699.239685,324.156677 700.785889,324.280853 702.187500,324.716492 
	C704.889526,325.556244 706.268616,327.657715 706.120605,330.410553 
	C705.966736,333.269745 704.153687,334.879852 701.324646,335.281097 
	C700.668823,335.374115 699.996704,335.378632 699.332092,335.378693 
	C673.533813,335.381042 647.735352,335.421875 621.937317,335.341370 
	C616.364319,335.324005 614.632935,332.874359 615.964355,327.035950 
z"/>
<path fill="#000000" opacity="1.000000" stroke="none" 
	d="
M355.000000,313.076843 
	C343.840210,313.085785 333.180420,313.102509 322.520630,313.095673 
	C320.857605,313.094604 319.158447,313.183411 317.539185,312.886383 
	C314.204742,312.274719 312.008636,310.355713 312.332153,306.727264 
	C312.629486,303.391846 314.789429,301.744324 318.094055,301.723694 
	C325.922241,301.674805 333.750793,301.670288 341.579193,301.667236 
	C355.903687,301.661621 370.228210,301.688049 384.552643,301.660919 
	C388.535431,301.653351 392.288147,302.200470 392.201660,307.257599 
	C392.118744,312.105530 388.508331,313.006805 384.481842,313.011230 
	C374.821228,313.021820 365.160614,313.053589 355.000000,313.076843 
z"/>
<path fill="#000000" opacity="1.000000" stroke="none" 
	d="
M627.458923,308.501587 
	C626.954163,303.550446 629.536926,301.716888 633.633667,301.706543 
	C655.741089,301.650848 677.848694,301.694000 699.956238,301.671356 
	C703.513184,301.667725 705.870300,303.317627 706.053101,306.822540 
	C706.233765,310.286407 704.021545,312.296356 700.614197,312.828156 
	C699.471375,313.006531 698.295959,313.032440 697.135376,313.033417 
	C676.690186,313.050720 656.244934,313.050323 635.799744,313.062256 
	C632.332947,313.064270 629.090149,312.664856 627.458923,308.501587 
z"/>
<path fill="#000000" opacity="1.000000" stroke="none" 
	d="
M370.942963,361.093872 
	C354.642853,361.089050 338.833771,361.097473 323.024780,361.057953 
	C320.870026,361.052582 318.653259,361.081726 316.576508,360.607422 
	C313.652679,359.939667 312.022583,357.829224 312.207764,354.767395 
	C312.383087,351.868256 314.272675,350.328094 317.020172,349.861115 
	C318.158203,349.667694 319.341980,349.703491 320.505005,349.702820 
	C339.309540,349.692200 358.114044,349.692139 376.918579,349.691284 
	C377.584137,349.691254 378.249786,349.703613 378.915283,349.716553 
	C382.439667,349.785034 384.784302,351.523315 384.908997,355.052185 
	C385.043640,358.863373 382.595978,360.747131 378.920227,360.958435 
	C376.430511,361.101562 373.929810,361.054169 370.942963,361.093872 
z"/>
<path fill="#000000" opacity="1.000000" stroke="none" 
	d="
M635.877075,386.155457 
	C634.973328,380.648804 636.471863,378.184875 641.385010,378.140411 
	C660.869263,377.964050 680.356506,378.005554 699.841614,378.135742 
	C703.566711,378.160614 706.420654,380.109711 706.160706,384.292572 
	C705.915833,388.233490 703.084473,389.400085 699.475891,389.394012 
	C680.322083,389.361816 661.168213,389.362152 642.014465,389.395691 
	C639.500000,389.400116 637.425659,388.744415 635.877075,386.155457 
z"/>
<path fill="#000000" opacity="1.000000" stroke="none" 
	d="
M619.000000,241.860367 
	C626.665955,241.867081 633.832336,241.833649 640.997803,241.895752 
	C644.783813,241.928574 648.120789,242.771362 648.289001,247.508667 
	C648.428650,251.441025 646.100464,253.269470 640.747925,253.282242 
	C624.582764,253.320816 608.417358,253.315689 592.252258,253.259872 
	C587.110535,253.242126 583.853638,250.775986 584.277100,247.105850 
	C584.843201,242.200272 588.662231,241.878784 592.502319,241.871323 
	C601.168213,241.854492 609.834106,241.862198 619.000000,241.860367 
z"/>
<path fill="#000000" opacity="1.000000" stroke="none" 
	d="
M698.735962,349.687927 
	C703.244812,349.559021 706.349487,350.940033 706.189331,355.471893 
	C706.029419,359.997894 702.643494,360.987457 698.771484,360.984222 
	C683.453430,360.971436 668.135315,360.998352 652.817444,360.946381 
	C651.004761,360.940216 649.128601,360.764771 647.396301,360.268494 
	C644.684082,359.491547 643.332520,357.518524 643.513733,354.619049 
	C643.702393,351.600952 645.552734,350.130554 648.324158,349.831024 
	C650.466309,349.599518 652.647156,349.700500 654.810791,349.698883 
	C669.296631,349.688049 683.782410,349.689392 698.735962,349.687927 
z"/>
<path fill="#000000" opacity="1.000000" stroke="none" 
	d="
M430.455658,243.444611 
	C433.357117,248.766708 431.403870,253.096100 425.999420,253.167679 
	C409.222229,253.389969 392.440369,253.296494 375.660522,253.251465 
	C372.197357,253.242172 370.031433,251.466797 369.737549,247.854355 
	C369.426361,244.029694 371.798798,242.025879 375.067017,242.000458 
	C392.506042,241.864807 409.947449,242.001846 427.387512,242.118073 
	C428.308502,242.124207 429.225037,242.801163 430.455658,243.444611 
z"/>
<path fill="#000000" opacity="1.000000" stroke="none" 
	d="
M538.487793,439.701324 
	C533.806519,436.373413 531.065369,432.102814 529.442261,427.059937 
	C527.596924,421.326782 528.135315,420.333221 534.014160,418.669189 
	C535.740540,418.180573 537.391113,417.168274 539.284485,417.699371 
	C540.640564,418.876404 540.155457,420.504883 540.438599,421.925568 
	C541.608948,427.797241 545.957275,431.536316 551.960327,431.687408 
	C555.618164,431.779510 559.364563,432.203766 562.923828,431.604126 
	C572.149353,430.049927 576.591553,436.360138 581.658203,441.873505 
	C581.313416,442.410675 581.160278,442.895233 580.970276,442.910126 
	C569.525208,443.808838 558.067627,443.537018 546.622437,443.011688 
	C543.804382,442.882355 541.249512,441.342865 538.487793,439.701324 
z"/>
<path fill="#000000" opacity="1.000000" stroke="none" 
	d="
M618.201172,265.084564 
	C626.311035,265.181091 633.947388,265.307739 641.584290,265.371307 
	C645.470520,265.403687 648.146423,266.978210 648.215210,271.105377 
	C648.289673,275.580811 645.164429,276.428589 641.439758,276.408356 
	C632.636658,276.360565 623.833008,276.358521 615.029846,276.396973 
	C611.194946,276.413727 607.407471,276.326141 606.799500,271.348511 
	C606.353882,267.700195 609.195618,265.591156 614.739929,265.177277 
	C615.732605,265.103180 616.731689,265.115936 618.201172,265.084564 
z"/>
<path fill="#000000" opacity="1.000000" stroke="none" 
	d="
M372.745667,275.865601 
	C369.903687,274.100769 369.200806,271.806427 370.026062,269.164459 
	C370.885986,266.411530 373.199005,265.357910 375.859039,265.274445 
	C385.514252,264.971466 395.173950,264.684174 404.817352,265.592377 
	C408.349915,265.925049 410.415771,267.812714 410.271332,271.418304 
	C410.133057,274.869659 407.913971,276.393036 404.601990,276.366760 
	C394.115570,276.283539 383.629425,276.162506 372.745667,275.865601 
z"/>
<path fill="#000000" opacity="1.000000" stroke="none" 
	d="
M484.221985,291.830963 
	C494.971161,293.377716 505.452759,292.414398 515.914307,292.640381 
	C524.201416,292.819427 525.196350,293.657227 525.219971,301.739410 
	C525.261414,315.923981 525.261169,315.966492 510.807709,315.890991 
	C503.987396,315.855377 497.167725,315.636169 490.348450,315.472504 
	C484.273071,315.326721 483.492645,316.028931 483.348083,322.077789 
	C483.291901,324.429443 483.497192,326.967590 480.824707,328.066498 
	C478.170197,329.158051 476.079834,327.906830 474.112518,326.063873 
	C468.040222,320.375519 461.880096,314.780853 455.748444,309.155945 
	C451.956055,305.676971 451.887207,303.445374 455.555542,300.088898 
	C461.569031,294.586609 467.635132,289.141388 473.616638,283.604706 
	C475.782196,281.600159 477.994446,279.722565 481.111816,281.063293 
	C484.103027,282.349823 483.130920,285.255157 483.358215,287.644348 
	C483.482361,288.949432 483.725952,290.243164 484.221985,291.830963 
z"/>
<path fill="#000000" opacity="1.000000" stroke="none" 
	d="
M554.456787,324.539734 
	C559.188904,329.002991 563.633179,333.256744 568.153564,337.427979 
	C571.278381,340.311340 571.307495,342.908142 568.016602,345.753601 
	C561.734924,351.185089 555.589111,356.773499 549.369751,362.277405 
	C547.613403,363.831757 545.803772,365.527863 543.190247,364.321259 
	C540.608398,363.129272 540.398743,360.691071 540.698730,358.333344 
	C541.334351,353.336914 538.989136,352.066254 534.379089,352.190308 
	C524.741394,352.449646 515.091553,352.325653 505.447449,352.258148 
	C499.674835,352.217743 498.041718,350.537964 497.949280,344.809021 
	C497.903687,341.983490 497.934540,339.153717 498.034698,336.329559 
	C498.225677,330.944977 499.787811,329.203552 505.336792,329.090271 
	C514.977661,328.893463 524.627563,328.839355 534.267517,329.031799 
	C538.386292,329.113983 540.627502,327.869751 540.533508,323.503662 
	C540.478333,320.940643 540.646606,318.393127 543.568054,317.292633 
	C546.568359,316.162415 548.138733,318.435425 549.920532,320.112427 
	C551.373047,321.479492 552.776306,322.898865 554.456787,324.539734 
z"/>
<path fill="#000000" opacity="1.000000" stroke="none" 
	d="
M534.579956,391.834778 
	C512.024231,398.863403 490.727264,397.178680 470.853943,384.752747 
	C453.006409,373.593475 442.561646,357.420624 439.914703,336.416687 
	C439.692352,334.652161 439.339905,332.787872 440.804810,329.785217 
	C447.206055,360.413269 464.232269,380.791168 493.988098,388.238892 
	C523.955200,395.739532 548.309998,384.212280 569.283081,362.343689 
	C567.550110,372.771790 552.160583,385.610962 534.579956,391.834778 
z"/>
<path fill="#000000" opacity="1.000000" stroke="none" 
	d="
M611.514160,420.460388 
	C624.376221,432.804504 637.255127,444.638733 649.489136,457.105682 
	C655.108459,462.832001 658.764160,463.372437 664.145813,456.014313 
	C667.031738,462.145111 662.356445,470.669189 654.547607,472.907715 
	C649.343140,474.399658 644.626770,473.805939 640.395508,469.494476 
	C623.612061,452.392914 606.596313,435.519073 588.939636,419.307800 
	C587.591492,418.069977 586.232422,416.836090 584.976624,415.507599 
	C583.303589,413.737793 581.747375,411.540649 583.585876,409.333984 
	C585.492615,407.045380 588.159424,405.375977 591.422363,405.729095 
	C593.105286,405.911224 593.032532,407.510986 593.401489,408.793182 
	C595.429138,415.838837 599.456604,418.797577 606.915344,418.482452 
	C608.796814,418.402954 610.141235,418.807983 611.514160,420.460388 
z"/>
<path fill="#000000" opacity="1.000000" stroke="none" 
	d="
M605.856812,401.199829 
	C610.822327,405.021759 611.838379,409.384064 608.693726,412.695190 
	C606.130676,415.393921 603.018311,416.252045 599.716614,414.207153 
	C596.299438,412.090729 595.368774,408.818481 596.711975,405.113159 
	C598.232178,400.919739 601.445862,399.917938 605.856812,401.199829 
z"/>
</svg>